<svg xmlns="http://www.w3.org/2000/svg" version="1.1" xmlns:xlink="http://www.w3.org/1999/xlink" xmlns:svgjs="http://svgjs.com/svgjs" width="330pt" height="207pt"><svg xmlns="http://www.w3.org/2000/svg" xmlns:xlink="http://www.w3.org/1999/xlink" width="330pt" height="207pt" viewBox="0 0 330 207" version="1.1">
<defs>
<clipPath id="SvgjsClipPath1003">
  <path d="M 14.398438 186 L 315.597656 186 L 315.597656 192.597656 L 14.398438 192.597656 Z M 14.398438 186 "></path>
</clipPath>
<clipPath id="SvgjsClipPath1002">
  <path d="M 14.398438 14.398438 L 21 14.398438 L 21 192.597656 L 14.398438 192.597656 Z M 14.398438 14.398438 "></path>
</clipPath>
<clipPath id="SvgjsClipPath1001">
  <path d="M 14.398438 24 L 315.597656 24 L 315.597656 192.597656 L 14.398438 192.597656 Z M 14.398438 24 "></path>
</clipPath>
</defs>
<g id="SvgjsG1000">
<rect x="0" y="0" width="330" height="207" style="fill:rgb(100%,100%,100%);fill-opacity:1;stroke:none;"></rect>
<g clip-path="url(#clip1)" clip-rule="nonzero">
<path style="fill:none;stroke-width:11.25;stroke-linecap:round;stroke-linejoin:round;stroke:rgb(0%,0%,0%);stroke-opacity:1;stroke-miterlimit:10;" d="M 14.398438 192.601562 L 315.601562 192.601562 "></path>
</g>
<g clip-path="url(#clip2)" clip-rule="nonzero">
<path style="fill:none;stroke-width:11.25;stroke-linecap:round;stroke-linejoin:round;stroke:rgb(0%,0%,0%);stroke-opacity:1;stroke-miterlimit:10;" d="M 14.398438 192.601562 L 14.398438 14.398438 "></path>
</g>
<g clip-path="url(#clip3)" clip-rule="nonzero">
<path style="fill:none;stroke-width:6;stroke-linecap:round;stroke-linejoin:round;stroke:rgb(0%,0%,0%);stroke-opacity:1;stroke-miterlimit:10;" d="M 14.398438 191.714844 L 17.441406 185.171875 L 20.484375 184.28125 L 23.527344 180.199219 L 26.570312 176.78125 L 29.613281 179.289062 L 32.65625 179.113281 L 35.695312 175.019531 L 38.738281 173.960938 L 41.78125 176.65625 L 44.824219 173.976562 L 47.867188 174.304688 L 50.910156 173.398438 L 53.953125 177.105469 L 56.992188 172.890625 L 60.035156 171.773438 L 63.078125 171.078125 L 66.121094 170.359375 L 69.164062 173.785156 L 72.207031 176.25 L 75.25 172.378906 L 78.289062 166.628906 L 81.332031 165.972656 L 84.375 166.488281 L 87.417969 162.617188 L 90.460938 159.640625 L 93.503906 155.554688 L 96.546875 155.886719 L 99.585938 153.90625 L 102.628906 149.585938 L 105.671875 149.1875 L 108.714844 148.089844 L 111.757812 142.078125 L 114.800781 137.035156 L 117.84375 131.070312 L 120.886719 126.363281 L 123.925781 124.25 L 126.96875 118.527344 L 130.011719 117.691406 L 133.054688 120.367188 L 136.097656 118.714844 L 139.140625 115.089844 L 142.183594 104.695312 L 145.222656 103.917969 L 148.265625 102.976562 L 151.308594 97.050781 L 154.351562 98.023438 L 157.394531 91.457031 L 160.4375 86.066406 L 163.480469 79.734375 L 166.519531 73.828125 L 169.5625 66.691406 L 172.605469 63.414062 L 175.648438 54.507812 L 178.691406 48.53125 L 181.734375 47.417969 L 184.777344 47.152344 L 187.816406 43.46875 L 190.859375 36.933594 L 193.902344 33.75 L 196.945312 29.820312 L 199.988281 28.320312 L 203.03125 28.089844 L 206.074219 30.921875 L 209.113281 35.597656 L 212.15625 40.199219 L 215.199219 42.441406 L 218.242188 41.285156 L 221.285156 43.492188 L 224.328125 39.605469 L 227.371094 43.570312 L 230.414062 50.574219 L 233.453125 57.152344 L 236.496094 61.367188 L 239.539062 63.359375 L 242.582031 66.675781 L 245.625 67.105469 L 248.667969 64.519531 L 251.710938 67.578125 L 254.75 61.519531 L 257.792969 60.042969 L 260.835938 51.152344 L 263.878906 47.550781 L 266.921875 46.863281 L 269.964844 47.144531 L 273.007812 48.101562 L 276.046875 48.90625 L 279.089844 46.65625 L 282.132812 45.273438 L 285.175781 44.867188 L 288.21875 46.859375 L 291.261719 51.507812 L 294.304688 45.515625 L 297.34375 42.6875 L 300.386719 42.03125 L 303.429688 35.828125 L 306.472656 34 L 309.515625 27.96875 L 312.558594 28.671875 L 315.601562 35.925781 "></path>
</g>
</g>
</svg><style>@media (prefers-color-scheme: light) { :root { filter: none; } }
</style></svg>